<svg width="100%" height="100%" viewBox="0 0 275 273" version="1.1" xmlns="http://www.w3.org/2000/svg" xmlns:xlink="http://www.w3.org/1999/xlink" xml:space="preserve" xmlns:serif="http://www.serif.com/" style="fill-rule:evenodd;clip-rule:evenodd;stroke-linejoin:round;stroke-miterlimit:2;"><path d="M274.975,61.956c0,-14.379 -11.673,-26.052 -26.051,-26.052l-222.716,0c-14.378,0 -26.052,11.673 -26.052,26.052l0,184.707c0,14.379 11.674,26.052 26.052,26.052l222.716,-0c14.378,-0 26.051,-11.673 26.051,-26.052l0,-184.707Zm-137.409,17.173c41.493,-0 75.18,33.687 75.18,75.18c0,41.494 -33.687,75.181 -75.18,75.181c-41.494,0 -75.181,-33.687 -75.181,-75.181c0,-41.493 33.687,-75.18 75.181,-75.18Zm1.114,46.389c10.832,-11.734 31.116,-11.499 41.4,-2.963c10.574,8.778 9.009,25.43 3.068,36.526c-6.702,12.519 -45.438,42.43 -45.474,42.409c-0.036,0.021 -38.771,-29.89 -45.474,-42.409c-5.941,-11.096 -7.506,-27.748 3.069,-36.526c10.283,-8.536 30.567,-8.771 41.4,2.963c0.329,0.207 0.664,0.504 1.005,0.897c0.342,-0.393 0.677,-0.691 1.006,-0.897Zm-100.58,-66.161c8.164,0 14.792,6.628 14.792,14.791c-0,8.164 -6.628,14.792 -14.792,14.792c-8.163,-0 -14.791,-6.628 -14.791,-14.792c0,-8.163 6.628,-14.791 14.791,-14.791Zm137.053,-58.852l-78.809,-0c-9.583,9.041 -16.142,21.382 -17.855,35.399l114.52,0c-1.714,-14.017 -8.272,-26.358 -17.856,-35.399Z" style="fill:#8b5cf6;"/></svg>