<svg width="68" height="68" fill="none" xmlns="http://www.w3.org/2000/svg"><g clip-path="url(#a)"><path d="M54.104 52.46c-1-3.742-9.58-6.757-20.159-6.757-10.58 0-19.062 3.029-20.063 6.756-.452 1.672-.96 4.824-1.384 7.88A33.883 33.883 0 0 0 34 68c8.154 0 15.636-2.878 21.502-7.66-.439-3.07-.946-6.222-1.398-7.88z" fill="#CE8699"/><path d="M40.688 44.374c-1.768-2.412-4.14-3.727-6.688-3.727-2.549 0-4.92 1.329-6.688 3.727-1.699 2.316-2.63 5.386-2.63 8.634 0 3.247.931 6.317 2.63 8.633C29.08 64.053 31.451 65.37 34 65.37c2.549 0 4.92-1.33 6.688-3.728 1.699-2.316 2.63-5.386 2.63-8.633 0-3.248-.931-6.304-2.63-8.634zM34 63.464c-4.084 0-7.414-4.687-7.414-10.443 0-5.755 3.33-10.442 7.414-10.442s7.414 4.687 7.414 10.442c0 5.756-3.33 10.443-7.414 10.443z" fill="#283030"/><path d="m55.42 59.819-8.771 1.466.74 3.96a33.849 33.849 0 0 0 8.1-4.92c-.015-.164-.042-.328-.07-.506zM12.58 59.819c-.027.178-.055.342-.068.52a34.062 34.062 0 0 0 7.976 4.865l.74-3.933-8.648-1.452z" fill="#E2A379"/><path d="M54.104 52.46c-.658-2.454-4.577-4.605-10.182-5.784l2.467 13.238 8.825-1.466c-.356-2.412-.754-4.673-1.11-5.989zM13.896 52.46c-.356 1.329-.754 3.59-1.11 5.988l8.689 1.439L23.94 46.69c-5.55 1.178-9.4 3.316-10.045 5.77z" fill="#CE8699"/><path d="M12.786 58.448c-.068.453-.137.918-.205 1.384l8.633 1.44.26-1.385-8.688-1.439zM55.214 58.448l-8.812 1.453.26 1.384 8.771-1.466c-.082-.453-.15-.919-.219-1.37z" fill="#C14D71"/><path d="M39.33 38.66H28.67c1.658 5.015.137 7.304.137 7.304s2.302 3.85 5.153 3.85c2.85 0 5.235-3.85 5.235-3.85s-1.521-2.289.137-7.305z" fill="#E2A379"/><path d="M44.785 27.93 30.78 23.255c-15.308 8.73-10.114 18.514-8.812 22.954 2.631 8.935-3.317 10.142-3.317 10.142l.288-.055s9.716.767 8.552-8.47c-.576-4.59.794-13.717 17.294-19.898z" fill="#3F1C0A"/><path d="M34 8.442c-6.03 0-10.936 2.905-10.936 15.568 0 4.29.767 7.647 1.919 10.237 2.521 5.7 6.893 7.688 9.017 7.688 2.124 0 6.482-1.987 9.017-7.688 1.151-2.59 1.919-5.948 1.919-10.237C44.936 11.347 40.03 8.442 34 8.442z" fill="#F4B382"/><path d="M23.27 24.393c-1.042.179-1.837.63-1.247 4.07.589 3.454 1.315 3.605 2.37 3.427l-1.123-7.497zM44.744 24.393l-1.11 7.51c1.042.178 1.782.014 2.371-3.426.576-3.453-.22-3.905-1.26-4.084z" fill="#F4B382"/><path d="M34 8.442c-7.853 0-11.334 3.44-11.334 16.102l1.302-1.082c6.277 0 11.635-3.687 15.513-7.168 1.645 4.536 5.852 8.236 5.852 8.236 0-12.649-3.48-16.088-11.333-16.088z" fill="#3F1C0A"/><path d="M35.425 35.33c-.411-.055-1.425.342-1.425.342s-1.042-.397-1.453-.343c-.658.096-2.206.63-2.206.823 0 0 1.946 1.315 3.659 1.315 1.713 0 3.659-1.315 3.659-1.315s-1.562-.727-2.234-.823z" fill="#CC785E"/><path d="M34.836 36.234c-.274-.014-.617.233-.836.233-.26 0-.658-.247-.96-.22-1.795.11-2.685-.095-2.685-.095s1.945 1.85 3.659 1.85c1.712 0 3.658-1.85 3.658-1.85s-.959.191-2.836.082z" fill="#C16952"/><path d="M23.955 25.092c-.055-.37-.069-.712-.055-.973.014-.397.068-.644.068-.644l-1.288.48v.59s.123-.042.343-.124c.178.301.397.767.617 1.439-.014.013.493.384.315-.768zM45.32 23.955l-1.275-.85s.055.617.069 1.014c.013.274 0 .603-.055.973-.178 1.152.315.782.315.782a7.14 7.14 0 0 1 .603-1.44c.22.083.343.11.343.11a4.229 4.229 0 0 0 0-.59z" fill="#3F1C0A"/><path d="M27.354 55.653h-1.576c-.206 0-.37.301-.37.685 0 .383.164.685.37.685h1.576c.205 0 .37-.302.37-.685 0-.384-.165-.685-.37-.685z" fill="#010101"/><path d="M42.551 57.448H25.45c-.658 0-1.206.534-1.206 1.206v7.92A34.143 34.143 0 0 0 34 68c3.385 0 6.66-.493 9.744-1.425v-7.921a1.196 1.196 0 0 0-1.193-1.206z" fill="#202121"/><path d="M31.424 56.338h-5.962c-.671 0-1.22.657-1.22 1.466v3.467c0 .809.549 1.466 1.22 1.466h5.962c.671 0 1.22-.657 1.22-1.466v-3.467c0-.809-.549-1.466-1.22-1.466z" fill="#202121"/><path d="M34 57.105a5.995 5.995 0 0 0-5.989 5.989c0 1.905.891 3.604 2.275 4.7 1.22.138 2.453.206 3.714.206 1.247 0 2.494-.069 3.7-.206a5.986 5.986 0 0 0 2.275-4.7c.014-3.303-2.672-5.989-5.975-5.989z" fill="#010101"/><path d="M34 57.407a5.69 5.69 0 0 0-5.687 5.687 5.683 5.683 0 0 0 2.576 4.755c1.028.096 2.056.137 3.111.137a39.09 39.09 0 0 0 3.111-.137 5.683 5.683 0 0 0 2.576-4.755A5.69 5.69 0 0 0 34 57.407z" fill="#231F20"/><path d="M34 57.708a5.387 5.387 0 0 0-5.386 5.386c0 2.11 1.22 3.933 2.988 4.81a34.693 34.693 0 0 0 4.796 0 5.388 5.388 0 0 0 2.988-4.824c0-2.96-2.412-5.372-5.386-5.372z" fill="#979797"/><path d="M34 57.955a5.141 5.141 0 0 0-5.14 5.139 5.141 5.141 0 0 0 3.482 4.865 33.486 33.486 0 0 0 3.316 0A5.141 5.141 0 0 0 34 57.955z" fill="#231F20"/><path d="M34.027 58.38a4.729 4.729 0 1 0 4.728 4.728 4.72 4.72 0 0 0-4.728-4.728z" fill="#010101"/><path d="M34.028 58.612c-2.48 0-4.482 2.001-4.482 4.482 0 2.48 2.001 4.481 4.482 4.481 2.48 0 4.48-2 4.48-4.481.015-2.48-2-4.482-4.48-4.482z" fill="#231F20"/><path d="M34.028 58.86a4.237 4.237 0 0 0-4.235 4.234c0 2.343 1.905 4.248 4.235 4.248a4.24 4.24 0 0 0 4.234-4.248c.014-2.343-1.891-4.235-4.234-4.235z" fill="#595A5C"/><path d="M34.028 59.038a4.056 4.056 0 1 0-.001 8.111 4.056 4.056 0 0 0 0-8.111z" fill="#231F20"/><path d="M34.027 59.586a3.506 3.506 0 0 0-3.508 3.508 3.506 3.506 0 0 0 3.508 3.508 3.506 3.506 0 0 0 3.509-3.508c.013-1.946-1.563-3.508-3.509-3.508z" fill="#A5B6B9"/><path d="M32.849 60.23a1.684 1.684 0 1 0 1.686 1.686c0-.932-.754-1.686-1.686-1.686z" fill="#fff"/><path d="M25.325 57.023a.433.433 0 0 0-.438.438V57.819l.795-.795h-.357zM28.286 57.023h-.576l-2.508 2.508c.041.014.082.027.137.027h2.083l1.316-1.315v-.782a.463.463 0 0 0-.452-.438z" fill="#66B9CC"/><path d="m25.682 57.023-.795.795v1.302c0 .192.123.356.301.41l2.508-2.507h-2.014zM27.408 59.558h.877a.433.433 0 0 0 .439-.438v-.877l-1.316 1.315z" fill="#D7E4F4"/></g><defs><clipPath id="a"><path fill="#fff" d="M0 0h68v68H0z"/></clipPath></defs></svg>