<svg width="80" height="63" fill="none" xmlns="http://www.w3.org/2000/svg"><path d="m.587 11.527 8.16 51.098 70.634-11.28L71.221.247.587 11.527z" fill="#EBF6F9"/><path d="M77.419 48.904 10.486 59.92 2.898 13.426 69.833 2.408l7.586 46.496z" fill="#DBF0F5"/><path d="M75.3 40.714 64.752 33.15s-3.144-2.916-5.533-2.384c-2.148.482-4.236 3.614-4.629 4.231l-3.536-2.535s-3.687-3.422-6.485-2.795c-2.8.626-5.525 5.116-5.525 5.116l-.775 1.078-6.657-4.775s-4.53-4.205-7.968-3.436c-3.44.769-6.791 6.29-6.791 6.29L8.819 45.138l2.307 13.968L76.55 48.334l-1.25-7.62z" fill="#6CC077"/><path d="M42.35 18.984c-.003-.076.036-.15.021-.227-.197-1.191-1.643-1.944-3.23-1.684-.208.035-.383.124-.576.188-.58-.555-1.52-.856-2.56-.685-1.347.221-2.294 1.128-2.39 2.124-1.263.473-2.106 1.487-1.932 2.548.165 1.003 1.177 1.687 2.429 1.795.56.85 1.784 1.336 3.14 1.114 1.23-.203 2.181-.925 2.543-1.788.336.055.688.06 1.056-.001 1.41-.23 2.412-1.277 2.239-2.336-.071-.435-.363-.78-.74-1.048zM56.236 19.48c-.02-.053-.062-.093-.07-.146-.139-.846.664-1.685 1.79-1.87.15-.025.288-.005.43-.005.264-.507.83-.925 1.566-1.045.958-.16 1.802.237 2.096.885.957.032 1.755.522 1.877 1.276.119.714-.41 1.403-1.224 1.762-.182.697-.898 1.305-1.86 1.464-.874.144-1.68-.127-2.121-.622-.212.11-.451.195-.711.238-1.003.166-1.915-.31-2.038-1.063-.052-.307.067-.605.265-.874z" fill="#67B8CB"/><path d="m44.939 23.202.084 1.613 1.07-1.518-.138 2.3c.803.637 1.201 3.612 1.201 3.612 1.308 3.596-.276 3.892-.276 3.892-1.476.279-1.75-1.523-1.75-1.523-1.361-.39-1.943-1.71-1.943-1.71.256 2.024-.67 4.496-.67 4.496-.425 1.476.579 2.027.579 2.027 1.407 2.119-.172 4.908-.172 4.908.692.274 2.201 1.994 2.201 1.994 1.646.836 1.39 2.718 1.39 2.718-.111 2.837-2.29 4.905-2.29 4.905-.776 2.017-1.218.186-1.218.186-.23-1.862 1.185-1.482 1.185-1.482-.127-.468.519-1.216.519-1.216.978-1.777.013-3.476.013-3.476-1.475-1.131-3.977-1.888-3.977-1.888.256 1.318-.66 5.634-.66 5.634-.717 2.061.233 3.652.233 3.652.525.245 1.111 1.241 1.111 1.241.25.938-1.397.809-1.397.809-1.22.186-.654-1.798-.654-1.798-1.224-.195-.67-1.906-.67-1.906.42-2.939-.475-7.737-.475-7.737-2.069 1.726-8.54.546-8.54.546.226 1.482-.182 4.853-.182 4.853.684 5.914 3.937 5.907 3.937 5.907.985.771-.542 1.06-.542 1.06-1.537.234-1.671-.992-1.671-.992-1.06.162-2.543-3.518-2.543-3.518-1.511-1.016-1.302-3.923-1.302-3.923-.563-1.921-2.064-1.8-2.064-1.8-.225 1.009-3.42 5.674-3.42 5.674-.893 2.686.49 5.347.49 5.347.504 1.17-1.078.761-1.078.761-1.41-.706-.475-1.337-.475-1.337.165-.351-.366-.975-.366-.975-.83-1.174.377-4.287.377-4.287-.264-3.16.812-3.216.812-3.216 1.236-1.49.439-3.159.439-3.159-1.552-3.07-.809-5.302-.809-5.302-1.85.663-1.34 3.297-1.34 3.297-.014 6.672-2.931 6.032-2.931 6.032 1.848-1.04.48-4.683.48-4.683-.82-6.438 4.32-5.812 4.32-5.812 1.234-2.574 5.959-2.535 5.959-2.535 1.142.368 5.254-.04 5.254-.04 3.266-.986 4.883-5.68 4.883-5.68 2.482-6.127 6.08-4.235 6.08-4.235l.936-1.716z" fill="#000"/></svg>