<svg width="23" height="42" viewBox="0 0 23 42" fill="none" xmlns="http://www.w3.org/2000/svg">
<path d="M3.37328 0.229004H19.2327C19.9975 0.229004 20.7309 0.532804 21.2717 1.07357C21.8124 1.61434 22.1162 2.34778 22.1162 3.11254V38.6761C22.1162 39.4408 21.8124 40.1743 21.2717 40.715C20.7309 41.2558 19.9975 41.5596 19.2327 41.5596H3.37328C2.60852 41.5596 1.87508 41.2558 1.33431 40.715C0.793545 40.1743 0.489746 39.4408 0.489746 38.6761V3.11254C0.489746 2.34778 0.793545 1.61434 1.33431 1.07357C1.87508 0.532804 2.60852 0.229004 3.37328 0.229004Z" fill="url(#paint0_linear_187_112)"/>
<path d="M3.37328 0.229004H19.2327C19.9975 0.229004 20.7309 0.532804 21.2717 1.07357C21.8124 1.61434 22.1162 2.34778 22.1162 3.11254V38.6761C22.1162 39.4408 21.8124 40.1743 21.2717 40.715C20.7309 41.2558 19.9975 41.5596 19.2327 41.5596H3.37328C2.60852 41.5596 1.87508 41.2558 1.33431 40.715C0.793545 40.1743 0.489746 39.4408 0.489746 38.6761V3.11254C0.489746 2.34778 0.793545 1.61434 1.33431 1.07357C1.87508 0.532804 2.60852 0.229004 3.37328 0.229004ZM4.81504 3.83342C4.05028 3.83342 3.31684 4.13722 2.77608 4.67798C2.23531 5.21875 1.93151 5.95219 1.93151 6.71695V35.0717C1.93151 35.8364 2.23531 36.5699 2.77608 37.1106C3.31684 37.6514 4.05028 37.9552 4.81504 37.9552H17.7909C18.5557 37.9552 19.2891 37.6514 19.8299 37.1106C20.3707 36.5699 20.6745 35.8364 20.6745 35.0717V6.71695C20.6745 5.95219 20.3707 5.21875 19.8299 4.67798C19.2891 4.13722 18.5557 3.83342 17.7909 3.83342H4.81504Z" fill="#545454"/>
<defs>
<linearGradient id="paint0_linear_187_112" x1="6.97769" y1="0.229004" x2="22.1162" y2="0.229004" gradientUnits="userSpaceOnUse">
<stop stop-color="#B9FAFA"/>
<stop offset="1" stop-color="#D0ECEC"/>
</linearGradient>
</defs>
</svg>
