<svg width="23" height="42" fill="none" xmlns="http://www.w3.org/2000/svg"><path d="M3.373.229h15.86a2.884 2.884 0 0 1 2.883 2.884v35.563a2.884 2.884 0 0 1-2.883 2.884H3.373A2.883 2.883 0 0 1 .49 38.676V3.113A2.884 2.884 0 0 1 3.373.229z" fill="url(#a)"/><path d="M3.373.229h15.86a2.884 2.884 0 0 1 2.883 2.884v35.563a2.884 2.884 0 0 1-2.883 2.884H3.373A2.883 2.883 0 0 1 .49 38.676V3.113A2.884 2.884 0 0 1 3.373.229zm1.442 3.604a2.884 2.884 0 0 0-2.883 2.884v28.355a2.883 2.883 0 0 0 2.883 2.883h12.976a2.883 2.883 0 0 0 2.883-2.883V6.717a2.883 2.883 0 0 0-2.883-2.884H4.815z" fill="#545454"/><defs><linearGradient id="a" x1="6.978" y1=".229" x2="22.116" y2=".229" gradientUnits="userSpaceOnUse"><stop stop-color="#B9FAFA"/><stop offset="1" stop-color="#D0ECEC"/></linearGradient></defs></svg>